<svg width="16" height="16" viewBox="0 0 16 16" fill="none" xmlns="http://www.w3.org/2000/svg">
<g clip-path="url(#clip0_720_11)">
<path d="M8.83398 1.33398C7.84907 1.33398 6.8738 1.53279 5.96386 1.91906C5.05392 2.30533 4.22712 2.87149 3.53068 3.58522C2.12416 5.02666 1.33398 6.98168 1.33398 9.02019C1.33398 12.4175 3.48648 15.2998 6.46398 16.3221C6.83898 16.3836 6.95898 16.1453 6.95898 15.9378V14.6388C4.88148 15.1 4.43898 13.6088 4.43898 13.6088C4.09398 12.7172 3.60648 12.479 3.60648 12.479C2.92398 12.0024 3.65898 12.0178 3.65898 12.0178C4.40898 12.0716 4.80648 12.8095 4.80648 12.8095C5.45898 13.9778 6.56148 13.6319 6.98898 13.4474C7.05648 12.9478 7.25148 12.6096 7.46148 12.4175C5.79648 12.2253 4.04898 11.5643 4.04898 8.63588C4.04898 7.78271 4.33398 7.09864 4.82148 6.55292C4.74648 6.36076 4.48398 5.5614 4.89648 4.52376C4.89648 4.52376 5.52648 4.31623 6.95898 5.30775C7.55148 5.13865 8.19648 5.05411 8.83398 5.05411C9.47148 5.05411 10.1165 5.13865 10.709 5.30775C12.1415 4.31623 12.7715 4.52376 12.7715 4.52376C13.184 5.5614 12.9215 6.36076 12.8465 6.55292C13.334 7.09864 13.619 7.78271 13.619 8.63588C13.619 11.572 11.864 12.2176 10.1915 12.4098C10.4615 12.6481 10.709 13.1169 10.709 13.8317V15.9378C10.709 16.1453 10.829 16.3913 11.2115 16.3221C14.189 15.2921 16.334 12.4175 16.334 9.02019C16.334 8.01082 16.14 7.01134 15.7631 6.0788C15.3862 5.14627 14.8337 4.29895 14.1373 3.58522C13.4408 2.87149 12.6141 2.30533 11.7041 1.91906C10.7942 1.53279 9.8189 1.33398 8.83398 1.33398Z" fill="#B3B3B3"/>
</g>
<defs>
<clipPath id="clip0_720_11">
<rect width="16" height="16" fill="white"/>
</clipPath>
</defs>
</svg>
