<svg width="16" height="16" viewBox="0 0 16 16" fill="none" xmlns="http://www.w3.org/2000/svg">
<path d="M5.20065 1.33398H10.8007C12.934 1.33398 14.6673 3.06732 14.6673 5.20065V10.8007C14.6673 11.8262 14.2599 12.8097 13.5348 13.5348C12.8097 14.2599 11.8262 14.6673 10.8007 14.6673H5.20065C3.06732 14.6673 1.33398 12.934 1.33398 10.8007V5.20065C1.33398 4.17515 1.74136 3.19165 2.4665 2.4665C3.19165 1.74136 4.17515 1.33398 5.20065 1.33398ZM5.06732 2.66732C4.4308 2.66732 3.82035 2.92017 3.37026 3.37026C2.92017 3.82035 2.66732 4.4308 2.66732 5.06732V10.934C2.66732 12.2607 3.74065 13.334 5.06732 13.334H10.934C11.5705 13.334 12.181 13.0811 12.631 12.631C13.0811 12.181 13.334 11.5705 13.334 10.934V5.06732C13.334 3.74065 12.2607 2.66732 10.934 2.66732H5.06732ZM11.5007 3.66732C11.7217 3.66732 11.9336 3.75512 12.0899 3.9114C12.2462 4.06768 12.334 4.27964 12.334 4.50065C12.334 4.72166 12.2462 4.93363 12.0899 5.08991C11.9336 5.24619 11.7217 5.33398 11.5007 5.33398C11.2796 5.33398 11.0677 5.24619 10.9114 5.08991C10.7551 4.93363 10.6673 4.72166 10.6673 4.50065C10.6673 4.27964 10.7551 4.06768 10.9114 3.9114C11.0677 3.75512 11.2796 3.66732 11.5007 3.66732ZM8.00065 4.66732C8.88471 4.66732 9.73255 5.01851 10.3577 5.64363C10.9828 6.26875 11.334 7.1166 11.334 8.00065C11.334 8.88471 10.9828 9.73255 10.3577 10.3577C9.73255 10.9828 8.88471 11.334 8.00065 11.334C7.1166 11.334 6.26875 10.9828 5.64363 10.3577C5.01851 9.73255 4.66732 8.88471 4.66732 8.00065C4.66732 7.1166 5.01851 6.26875 5.64363 5.64363C6.26875 5.01851 7.1166 4.66732 8.00065 4.66732ZM8.00065 6.00065C7.47022 6.00065 6.96151 6.21136 6.58644 6.58644C6.21136 6.96151 6.00065 7.47022 6.00065 8.00065C6.00065 8.53108 6.21136 9.03979 6.58644 9.41487C6.96151 9.78994 7.47022 10.0007 8.00065 10.0007C8.53108 10.0007 9.03979 9.78994 9.41487 9.41487C9.78994 9.03979 10.0007 8.53108 10.0007 8.00065C10.0007 7.47022 9.78994 6.96151 9.41487 6.58644C9.03979 6.21136 8.53108 6.00065 8.00065 6.00065Z" fill="#B3B3B3"/>
</svg>
