<svg width="16" height="16" viewBox="0 0 16 16" fill="none" xmlns="http://www.w3.org/2000/svg">
<g clip-path="url(#clip0_720_13)">
<path d="M15.3333 2C15.7754 2 16.1993 2.17559 16.5118 2.48816C16.8244 2.80072 17 3.22464 17 3.66667V15.3333C17 15.7754 16.8244 16.1993 16.5118 16.5118C16.1993 16.8244 15.7754 17 15.3333 17H3.66667C3.22464 17 2.80072 16.8244 2.48816 16.5118C2.17559 16.1993 2 15.7754 2 15.3333V3.66667C2 3.22464 2.17559 2.80072 2.48816 2.48816C2.80072 2.17559 3.22464 2 3.66667 2H15.3333ZM14.9167 14.9167V10.5C14.9167 9.77949 14.6304 9.0885 14.121 8.57903C13.6115 8.06955 12.9205 7.78333 12.2 7.78333C11.4917 7.78333 10.6667 8.21667 10.2667 8.86667V7.94167H7.94167V14.9167H10.2667V10.8083C10.2667 10.1667 10.7833 9.64167 11.425 9.64167C11.7344 9.64167 12.0312 9.76458 12.25 9.98338C12.4688 10.2022 12.5917 10.4989 12.5917 10.8083V14.9167H14.9167ZM5.23333 6.63333C5.60464 6.63333 5.96073 6.48583 6.22328 6.22328C6.48583 5.96073 6.63333 5.60464 6.63333 5.23333C6.63333 4.45833 6.00833 3.825 5.23333 3.825C4.85982 3.825 4.5016 3.97338 4.23749 4.23749C3.97338 4.5016 3.825 4.85982 3.825 5.23333C3.825 6.00833 4.45833 6.63333 5.23333 6.63333ZM6.39167 14.9167V7.94167H4.08333V14.9167H6.39167Z" fill="#B3B3B3"/>
</g>
<defs>
<clipPath id="clip0_720_13">
<rect width="16" height="16" fill="white"/>
</clipPath>
</defs>
</svg>
